<svg width="24" height="24" viewBox="0 0 24 24" fill="none" xmlns="http://www.w3.org/2000/svg">
<path d="M9.52961 16.122C9.268 15.477 8.79028 14.9431 8.17828 14.6116C7.56628 14.2802 6.85808 14.1718 6.17498 14.3052C5.49188 14.4385 4.87638 14.8051 4.43391 15.3424C3.99144 15.8796 3.74953 16.554 3.74961 17.25C3.74961 17.5581 3.68633 17.8629 3.56369 18.1455C3.44105 18.4282 3.26167 18.6826 3.03665 18.8931C2.81164 19.1036 2.5458 19.2656 2.2556 19.3692C1.9654 19.4727 1.65703 19.5155 1.34961 19.495C1.84406 20.3539 2.60824 21.0256 3.52353 21.4058C4.43882 21.7859 5.45401 21.8533 6.41151 21.5974C7.369 21.3415 8.21523 20.7766 8.81882 19.9905C9.42242 19.2044 9.74961 18.2411 9.74961 17.25C9.74961 16.851 9.67161 16.47 9.52961 16.122ZM9.52961 16.122C10.7186 15.7168 11.8558 15.1731 12.9176 14.502M7.87461 14.477C8.27982 13.2854 8.82425 12.1459 9.49661 11.082M12.9166 14.502C14.813 13.3038 16.4361 11.7202 17.6806 9.85395L21.5566 4.03995C21.7051 3.81851 21.7721 3.5524 21.7462 3.28705C21.7203 3.02169 21.603 2.77357 21.4145 2.58505C21.226 2.39652 20.9779 2.27929 20.7125 2.25338C20.4472 2.22746 20.181 2.29447 19.9596 2.44295L14.1456 6.31995C12.2791 7.56409 10.6952 9.18688 9.49661 11.083C11.0185 11.7634 12.2361 12.9811 12.9166 14.503" stroke="white" stroke-width="1.5" stroke-linecap="round" stroke-linejoin="round"/>
</svg>
