<svg width="40" height="40" viewBox="0 0 40 40" fill="none" xmlns="http://www.w3.org/2000/svg">
<path d="M19.9993 18.3334C18.6105 18.3334 17.4299 17.8473 16.4577 16.8751C15.4855 15.9029 14.9993 14.7223 14.9993 13.3334C14.9993 11.9445 15.4855 10.764 16.4577 9.79175C17.4299 8.81953 18.6105 8.33341 19.9993 8.33341C21.3882 8.33341 22.5688 8.81953 23.541 9.79175C24.5132 10.764 24.9993 11.9445 24.9993 13.3334C24.9993 14.7223 24.5132 15.9029 23.541 16.8751C22.5688 17.8473 21.3882 18.3334 19.9993 18.3334ZM19.9993 15.0001C20.4716 15.0001 20.8674 14.8404 21.1868 14.5209C21.5063 14.2015 21.666 13.8056 21.666 13.3334C21.666 12.8612 21.5063 12.4654 21.1868 12.1459C20.8674 11.8265 20.4716 11.6667 19.9993 11.6667C19.5271 11.6667 19.1313 11.8265 18.8118 12.1459C18.4924 12.4654 18.3327 12.8612 18.3327 13.3334C18.3327 13.8056 18.4924 14.2015 18.8118 14.5209C19.1313 14.8404 19.5271 15.0001 19.9993 15.0001ZM9.99935 28.3334V25.1667C9.99935 24.5834 10.1452 24.0348 10.4368 23.5209C10.7285 23.007 11.1243 22.5973 11.6243 22.2917C12.8743 21.5695 14.1938 21.007 15.5827 20.6042C16.9716 20.2015 18.4438 20.0001 19.9993 20.0001C21.5549 20.0001 23.0271 20.2015 24.416 20.6042C25.8049 21.007 27.1243 21.5695 28.3743 22.2917C28.8743 22.5973 29.2702 23.007 29.5618 23.5209C29.8535 24.0348 29.9993 24.5834 29.9993 25.1667V28.3334H9.99935ZM19.9993 23.3334C18.8605 23.3334 17.7493 23.4723 16.666 23.7501C15.5827 24.0279 14.5549 24.4445 13.5827 25.0001H26.416C25.4438 24.4445 24.416 24.0279 23.3327 23.7501C22.2493 23.4723 21.1382 23.3334 19.9993 23.3334ZM35.3743 13.5834C34.5132 11.5556 33.3118 9.77091 31.7702 8.22925C30.2285 6.68758 28.4438 5.48619 26.416 4.62508L27.7077 1.54175C30.1521 2.54175 32.298 3.9723 34.1452 5.83341C35.9924 7.69453 37.4299 9.8473 38.4577 12.2917L35.3743 13.5834ZM4.62435 13.5834L1.54102 12.2917C2.56879 9.8473 4.00629 7.70147 5.85352 5.85425C7.70074 4.00703 9.84657 2.56953 12.291 1.54175L13.5827 4.62508C11.5549 5.48619 9.77018 6.68758 8.22852 8.22925C6.68685 9.77091 5.48546 11.5556 4.62435 13.5834ZM12.291 38.4584C9.84657 37.4584 7.70074 36.0279 5.85352 34.1667C4.00629 32.3056 2.56879 30.1529 1.54102 27.7084L4.62435 26.4167C5.48546 28.4445 6.68685 30.2292 8.22852 31.7709C9.77018 33.3126 11.5549 34.514 13.5827 35.3751L12.291 38.4584ZM27.7077 38.4584L26.416 35.3751C28.4438 34.514 30.2285 33.3126 31.7702 31.7709C33.3118 30.2292 34.5132 28.4445 35.3743 26.4167L38.4577 27.7084C37.4577 30.1529 36.0271 32.2987 34.166 34.1459C32.3049 35.9931 30.1521 37.4306 27.7077 38.4584ZM19.9993 25.0001H26.416H13.5827H19.9993Z" fill="black"/>
</svg>
