<svg width="40" height="40" viewBox="0 0 40 40" fill="none" xmlns="http://www.w3.org/2000/svg">
<path d="M14.6673 18.2497L18.2507 14.6247L15.9173 12.2497L14.084 14.083L11.7507 11.7497L13.5423 9.91634L11.6673 8.04134L8.04232 11.6663L14.6673 18.2497ZM28.334 31.958L31.959 28.333L30.084 26.458L28.2507 28.2497L25.9173 25.9163L27.709 24.083L25.334 21.7497L21.7507 25.333L28.334 31.958ZM12.084 34.9997H5.00065V27.9163L12.2923 20.6247L3.33398 11.6663L11.6673 3.33301L20.6673 12.333L26.959 5.99967C27.2923 5.66634 27.6673 5.41634 28.084 5.24967C28.5007 5.08301 28.9312 4.99967 29.3757 4.99967C29.8201 4.99967 30.2506 5.08301 30.6673 5.24967C31.084 5.41634 31.459 5.66634 31.7923 5.99967L34.0006 8.24967C34.334 8.58301 34.584 8.95801 34.7506 9.37467C34.9173 9.79134 35.0006 10.2219 35.0006 10.6663C35.0006 11.1108 34.9173 11.5344 34.7506 11.9372C34.584 12.34 34.334 12.708 34.0006 13.0413L27.709 19.3747L36.6673 28.333L28.334 36.6663L19.3757 27.708L12.084 34.9997ZM8.33398 31.6663H10.6673L27.0007 15.3747L24.6257 12.9997L8.33398 29.333V31.6663ZM25.834 14.208L24.6257 12.9997L27.0007 15.3747L25.834 14.208Z" fill="black"/>
</svg>
