<svg width="40" height="40" viewBox="0 0 40 40" fill="none" xmlns="http://www.w3.org/2000/svg">
<path d="M13.3751 30H18.3751V28.3333H15.0418V26.6667H18.3751V21.6667H13.3751V23.3333H16.7084V25H13.3751V30ZM25.0418 30H26.7084V21.6667H25.0418V25H23.3751V21.6667H21.7084V26.6667H25.0418V30ZM35.0418 18.4167V31.6667C35.0418 32.5833 34.7154 33.3681 34.0626 34.0208C33.4098 34.6736 32.6251 35 31.7084 35H8.37511C7.45844 35 6.67372 34.6736 6.02094 34.0208C5.36816 33.3681 5.04177 32.5833 5.04177 31.6667V18.4167C4.40288 17.8333 3.90983 17.0833 3.56261 16.1667C3.21538 15.25 3.20844 14.25 3.54177 13.1667L5.29177 7.5C5.514 6.77778 5.90983 6.18056 6.47927 5.70833C7.04872 5.23611 7.70844 5 8.45844 5H31.6251C32.3751 5 33.0279 5.22917 33.5834 5.6875C34.139 6.14583 34.5418 6.75 34.7918 7.5L36.5418 13.1667C36.8751 14.25 36.8682 15.2361 36.5209 16.125C36.1737 17.0139 35.6807 17.7778 35.0418 18.4167ZM23.7084 16.6667C24.4584 16.6667 25.0279 16.4097 25.4168 15.8958C25.8057 15.3819 25.9584 14.8056 25.8751 14.1667L24.9584 8.33333H21.7084V14.5C21.7084 15.0833 21.9029 15.5903 22.2918 16.0208C22.6807 16.4514 23.1529 16.6667 23.7084 16.6667ZM16.2084 16.6667C16.8473 16.6667 17.3682 16.4514 17.7709 16.0208C18.1737 15.5903 18.3751 15.0833 18.3751 14.5V8.33333H15.1251L14.2084 14.1667C14.0973 14.8333 14.2432 15.4167 14.6459 15.9167C15.0487 16.4167 15.5696 16.6667 16.2084 16.6667ZM8.79177 16.6667C9.29177 16.6667 9.72927 16.4861 10.1043 16.125C10.4793 15.7639 10.7084 15.3056 10.7918 14.75L11.7084 8.33333H8.45844L6.79177 13.9167C6.62511 14.4722 6.71538 15.0694 7.06261 15.7083C7.40983 16.3472 7.98622 16.6667 8.79177 16.6667ZM31.2918 16.6667C32.0973 16.6667 32.6807 16.3472 33.0418 15.7083C33.4029 15.0694 33.4862 14.4722 33.2918 13.9167L31.5418 8.33333H28.3751L29.2918 14.75C29.3751 15.3056 29.6043 15.7639 29.9793 16.125C30.3543 16.4861 30.7918 16.6667 31.2918 16.6667ZM8.37511 31.6667H31.7084V19.9167C31.5695 19.9722 31.4793 20 31.4376 20H31.2918C30.5418 20 29.882 19.875 29.3126 19.625C28.7432 19.375 28.1807 18.9722 27.6251 18.4167C27.1251 18.9167 26.5557 19.3056 25.9168 19.5833C25.2779 19.8611 24.5973 20 23.8751 20C23.1251 20 22.4237 19.8611 21.7709 19.5833C21.1182 19.3056 20.5418 18.9167 20.0418 18.4167C19.5695 18.9167 19.0209 19.3056 18.3959 19.5833C17.7709 19.8611 17.0973 20 16.3751 20C15.5696 20 14.8404 19.8611 14.1876 19.5833C13.5348 19.3056 12.9584 18.9167 12.4584 18.4167C11.8751 19 11.2987 19.4097 10.7293 19.6458C10.1598 19.8819 9.51399 20 8.79177 20H8.60427C8.53483 20 8.45844 19.9722 8.37511 19.9167V31.6667Z" fill="black"/>
</svg>
