<svg width="40" height="40" viewBox="0 0 40 40" fill="none" xmlns="http://www.w3.org/2000/svg">
<path d="M34.9994 35V8.33333H4.99935V21.6667H1.66602V8.33333C1.66602 7.41667 1.9924 6.63194 2.64518 5.97917C3.29796 5.32639 4.08268 5 4.99935 5H34.9994C35.916 5 36.7007 5.32639 37.3535 5.97917C38.0063 6.63194 38.3327 7.41667 38.3327 8.33333V31.6667C38.3327 32.5833 38.0063 33.3681 37.3535 34.0208C36.7007 34.6736 35.916 35 34.9994 35ZM14.9993 23.3333C13.166 23.3333 11.5966 22.6806 10.291 21.375C8.98546 20.0694 8.33268 18.5 8.33268 16.6667C8.33268 14.8333 8.98546 13.2639 10.291 11.9583C11.5966 10.6528 13.166 10 14.9993 10C16.8327 10 18.4021 10.6528 19.7077 11.9583C21.0132 13.2639 21.666 14.8333 21.666 16.6667C21.666 18.5 21.0132 20.0694 19.7077 21.375C18.4021 22.6806 16.8327 23.3333 14.9993 23.3333ZM14.9993 20C15.916 20 16.7007 19.6736 17.3535 19.0208C18.0063 18.3681 18.3327 17.5833 18.3327 16.6667C18.3327 15.75 18.0063 14.9653 17.3535 14.3125C16.7007 13.6597 15.916 13.3333 14.9993 13.3333C14.0827 13.3333 13.298 13.6597 12.6452 14.3125C11.9924 14.9653 11.666 15.75 11.666 16.6667C11.666 17.5833 11.9924 18.3681 12.6452 19.0208C13.298 19.6736 14.0827 20 14.9993 20ZM1.66602 36.6667V32C1.66602 31.0556 1.90907 30.1875 2.39518 29.3958C2.88129 28.6042 3.52713 28 4.33268 27.5833C6.0549 26.7222 7.8049 26.0764 9.58268 25.6458C11.3605 25.2153 13.166 25 14.9993 25C16.8327 25 18.6382 25.2153 20.416 25.6458C22.1938 26.0764 23.9438 26.7222 25.666 27.5833C26.4716 28 27.1174 28.6042 27.6035 29.3958C28.0896 30.1875 28.3327 31.0556 28.3327 32V36.6667H1.66602ZM4.99935 33.3333H24.9993V32C24.9993 31.6944 24.923 31.4167 24.7702 31.1667C24.6174 30.9167 24.416 30.7222 24.166 30.5833C22.666 29.8333 21.1521 29.2708 19.6243 28.8958C18.0966 28.5208 16.5549 28.3333 14.9993 28.3333C13.4438 28.3333 11.9021 28.5208 10.3743 28.8958C8.84657 29.2708 7.33268 29.8333 5.83268 30.5833C5.58268 30.7222 5.38129 30.9167 5.22852 31.1667C5.07574 31.4167 4.99935 31.6944 4.99935 32V33.3333Z" fill="black"/>
</svg>
