<svg width="40" height="40" viewBox="0 0 40 40" fill="none" xmlns="http://www.w3.org/2000/svg">
<path d="M4 29V24.8C4 23.95 4.21212 23.1688 4.63636 22.4563C5.06061 21.7438 5.62424 21.2 6.32727 20.825C7.8303 20.05 9.35758 19.4688 10.9091 19.0813C12.4606 18.6938 14.0364 18.5 15.6364 18.5C16.7273 18.5 17.8061 18.5875 18.8727 18.7625C19.9394 18.9375 21.0061 19.2125 22.0727 19.5875C21.6606 19.9375 21.2848 20.3188 20.9455 20.7313C20.6061 21.1438 20.303 21.5875 20.0364 22.0625C19.3091 21.8625 18.5818 21.7188 17.8545 21.6313C17.1273 21.5438 16.3879 21.5 15.6364 21.5C14.2788 21.5 12.9333 21.6688 11.6 22.0063C10.2667 22.3438 8.94545 22.85 7.63636 23.525C7.41818 23.65 7.24242 23.825 7.10909 24.05C6.97576 24.275 6.90909 24.525 6.90909 24.8V26H18.6545C18.6061 26.5 18.5818 27 18.5818 27.5C18.5818 28 18.6061 28.5 18.6545 29H4ZM15.6364 17C14.0364 17 12.6667 16.4125 11.5273 15.2375C10.3879 14.0625 9.81818 12.65 9.81818 11C9.81818 9.35 10.3879 7.9375 11.5273 6.7625C12.6667 5.5875 14.0364 5 15.6364 5C17.2364 5 18.6061 5.5875 19.7455 6.7625C20.8848 7.9375 21.4545 9.35 21.4545 11C21.4545 12.65 20.8848 14.0625 19.7455 15.2375C18.6061 16.4125 17.2364 17 15.6364 17ZM15.6364 14C16.4364 14 17.1212 13.7063 17.6909 13.1188C18.2606 12.5313 18.5455 11.825 18.5455 11C18.5455 10.175 18.2606 9.46875 17.6909 8.88125C17.1212 8.29375 16.4364 8 15.6364 8C14.8364 8 14.1515 8.29375 13.5818 8.88125C13.0121 9.46875 12.7273 10.175 12.7273 11C12.7273 11.825 13.0121 12.5313 13.5818 13.1188C14.1515 13.7063 14.8364 14 15.6364 14ZM30.1818 11C30.1818 12.65 29.6121 14.0625 28.4727 15.2375C27.3333 16.4125 25.9636 17 24.3636 17C24.097 17 23.7576 16.9688 23.3455 16.9062C22.9333 16.8438 22.5939 16.775 22.3273 16.7C22.9818 15.9 23.4848 15.0125 23.8364 14.0375C24.1879 13.0625 24.3636 12.05 24.3636 11C24.3636 9.95 24.1879 8.9375 23.8364 7.9625C23.4848 6.9875 22.9818 6.1 22.3273 5.3C22.6667 5.175 23.0061 5.09375 23.3455 5.05625C23.6848 5.01875 24.0242 5 24.3636 5C25.9636 5 27.3333 5.5875 28.4727 6.7625C29.6121 7.9375 30.1818 9.35 30.1818 11ZM28.7273 35C26.7152 35 25 34.2688 23.5818 32.8063C22.1636 31.3438 21.4545 29.575 21.4545 27.5C21.4545 25.4 22.1636 23.625 23.5818 22.175C25 20.725 26.7152 20 28.7273 20C30.7636 20 32.4848 20.725 33.8909 22.175C35.297 23.625 36 25.4 36 27.5C36 29.575 35.297 31.3438 33.8909 32.8063C32.4848 34.2688 30.7636 35 28.7273 35ZM27.7091 30.875L32.8364 25.55L31.8182 24.5L27.7091 28.7375L25.6364 26.6L24.6182 27.6875L27.7091 30.875Z" fill="black"/>
</svg>
