<svg width="32" height="32" viewBox="0 0 32 32" fill="none" xmlns="http://www.w3.org/2000/svg">
<rect width="32" height="32" rx="4" fill="#02A6DC"/>
<path d="M9.16 11.3346C10.36 11.3346 11.32 10.3596 11.32 9.17465C11.32 7.98965 10.345 7.01465 9.16 7.01465C7.975 7.01465 7 7.98965 7 9.17465C7 10.3596 7.975 11.3346 9.16 11.3346ZM13.375 12.9696V24.9996H17.095V19.0596C17.095 17.4846 17.395 15.9696 19.33 15.9696C21.265 15.9696 21.265 17.7696 21.265 19.1496V24.9996H25V18.3996C25 15.1596 24.31 12.6696 20.53 12.6696C18.715 12.6696 17.5 13.6596 17.005 14.6046H16.96V12.9546H13.39L13.375 12.9696ZM7.3 12.9696H11.035V24.9996H7.3V12.9696Z" fill="black"/>
</svg>
