<svg width="24" height="24" viewBox="0 0 24 24" fill="none" xmlns="http://www.w3.org/2000/svg">
<path d="M20.6004 21L14.2004 14.6C14.0004 14.3833 13.7879 14.1625 13.5629 13.9375C13.3379 13.7125 13.1171 13.5 12.9004 13.3C13.5337 12.9 14.0421 12.3667 14.4254 11.7C14.8087 11.0333 15.0004 10.3 15.0004 9.5C15.0004 8.25 14.5629 7.1875 13.6879 6.3125C12.8129 5.4375 11.7504 5 10.5004 5C9.25039 5 8.18789 5.4375 7.31289 6.3125C6.43789 7.1875 6.00039 8.25 6.00039 9.5C6.00039 9.6 6.00456 9.69583 6.01289 9.7875C6.02122 9.87917 6.03372 9.975 6.05039 10.075C5.75039 10.1083 5.42122 10.175 5.06289 10.275C4.70456 10.375 4.38372 10.4917 4.10039 10.625C4.06706 10.4417 4.04206 10.2583 4.02539 10.075C4.00872 9.89167 4.00039 9.7 4.00039 9.5C4.00039 7.68333 4.62956 6.14583 5.88789 4.8875C7.14622 3.62917 8.68372 3 10.5004 3C12.3171 3 13.8546 3.62917 15.1129 4.8875C16.3712 6.14583 17.0004 7.68333 17.0004 9.5C17.0004 10.2167 16.8879 10.8958 16.6629 11.5375C16.4379 12.1792 16.1254 12.7667 15.7254 13.3L22.0004 19.6L20.6004 21ZM6.00039 22L5.70039 20.5C5.50039 20.4167 5.31289 20.3292 5.13789 20.2375C4.96289 20.1458 4.78372 20.0333 4.60039 19.9L3.15039 20.35L2.15039 18.65L3.30039 17.65C3.26706 17.4333 3.25039 17.2167 3.25039 17C3.25039 16.7833 3.26706 16.5667 3.30039 16.35L2.15039 15.35L3.15039 13.65L4.60039 14.1C4.78372 13.9667 4.96289 13.8542 5.13789 13.7625C5.31289 13.6708 5.50039 13.5833 5.70039 13.5L6.00039 12H8.00039L8.30039 13.5C8.50039 13.5833 8.68789 13.6708 8.86289 13.7625C9.03789 13.8542 9.21706 13.9667 9.40039 14.1L10.8504 13.65L11.8504 15.35L10.7004 16.35C10.7337 16.5667 10.7504 16.7833 10.7504 17C10.7504 17.2167 10.7337 17.4333 10.7004 17.65L11.8504 18.65L10.8504 20.35L9.40039 19.9C9.21706 20.0333 9.03789 20.1458 8.86289 20.2375C8.68789 20.3292 8.50039 20.4167 8.30039 20.5L8.00039 22H6.00039ZM7.00039 19C7.55039 19 8.02122 18.8042 8.41289 18.4125C8.80456 18.0208 9.00039 17.55 9.00039 17C9.00039 16.45 8.80456 15.9792 8.41289 15.5875C8.02122 15.1958 7.55039 15 7.00039 15C6.45039 15 5.97956 15.1958 5.58789 15.5875C5.19622 15.9792 5.00039 16.45 5.00039 17C5.00039 17.55 5.19622 18.0208 5.58789 18.4125C5.97956 18.8042 6.45039 19 7.00039 19Z" fill="white"/>
</svg>
