<svg width="24" height="24" viewBox="0 0 24 24" fill="none" xmlns="http://www.w3.org/2000/svg">
<path d="M5.65078 10.0251L7.60078 10.8501C7.83411 10.3834 8.07578 9.93344 8.32578 9.50011C8.57578 9.06677 8.85078 8.63344 9.15078 8.20011L7.75078 7.92511L5.65078 10.0251ZM9.20078 12.1001L12.0508 14.9251C12.7508 14.6584 13.5008 14.2501 14.3008 13.7001C15.1008 13.1501 15.8508 12.5251 16.5508 11.8251C17.7174 10.6584 18.6299 9.36261 19.2883 7.93761C19.9466 6.51261 20.2341 5.20011 20.1508 4.00011C18.9508 3.91677 17.6341 4.20427 16.2008 4.86261C14.7674 5.52094 13.4674 6.43344 12.3008 7.60011C11.6008 8.30011 10.9758 9.05011 10.4258 9.85011C9.87578 10.6501 9.46745 11.4001 9.20078 12.1001ZM13.6508 10.4751C13.2674 10.0918 13.0758 9.62094 13.0758 9.06261C13.0758 8.50427 13.2674 8.03344 13.6508 7.65011C14.0341 7.26677 14.5091 7.07511 15.0758 7.07511C15.6424 7.07511 16.1174 7.26677 16.5008 7.65011C16.8841 8.03344 17.0758 8.50427 17.0758 9.06261C17.0758 9.62094 16.8841 10.0918 16.5008 10.4751C16.1174 10.8584 15.6424 11.0501 15.0758 11.0501C14.5091 11.0501 14.0341 10.8584 13.6508 10.4751ZM14.1258 18.5001L16.2258 16.4001L15.9508 15.0001C15.5174 15.3001 15.0841 15.5709 14.6508 15.8126C14.2174 16.0543 13.7674 16.2918 13.3008 16.5251L14.1258 18.5001ZM21.9508 2.17511C22.2674 4.19177 22.0716 6.15427 21.3633 8.06261C20.6549 9.97094 19.4341 11.7918 17.7008 13.5251L18.2008 16.0001C18.2674 16.3334 18.2508 16.6584 18.1508 16.9751C18.0508 17.2918 17.8841 17.5668 17.6508 17.8001L13.4508 22.0001L11.3508 17.0751L7.07578 12.8001L2.15078 10.7001L6.32578 6.50011C6.55911 6.26677 6.83828 6.10011 7.16328 6.00011C7.48828 5.90011 7.81745 5.88344 8.15078 5.95011L10.6258 6.45011C12.3591 4.71677 14.1758 3.49177 16.0758 2.77511C17.9758 2.05844 19.9341 1.85844 21.9508 2.17511ZM3.92578 15.9751C4.50911 15.3918 5.22161 15.0959 6.06328 15.0876C6.90495 15.0793 7.61745 15.3668 8.20078 15.9501C8.78411 16.5334 9.07161 17.2459 9.06328 18.0876C9.05495 18.9293 8.75911 19.6418 8.17578 20.2251C7.75911 20.6418 7.06328 21.0001 6.08828 21.3001C5.11328 21.6001 3.76745 21.8668 2.05078 22.1001C2.28411 20.3834 2.55078 19.0376 2.85078 18.0626C3.15078 17.0876 3.50911 16.3918 3.92578 15.9751ZM5.35078 17.3751C5.18411 17.5418 5.01745 17.8459 4.85078 18.2876C4.68411 18.7293 4.56745 19.1751 4.50078 19.6251C4.95078 19.5584 5.39661 19.4459 5.83828 19.2876C6.27995 19.1293 6.58411 18.9668 6.75078 18.8001C6.95078 18.6001 7.05911 18.3584 7.07578 18.0751C7.09245 17.7918 7.00078 17.5501 6.80078 17.3501C6.60078 17.1501 6.35911 17.0543 6.07578 17.0626C5.79245 17.0709 5.55078 17.1751 5.35078 17.3751Z" fill="white"/>
</svg>
