<svg width="40" height="40" viewBox="0 0 40 40" fill="none" xmlns="http://www.w3.org/2000/svg">
<path d="M9.41602 16.7083L12.666 18.0833C13.0549 17.3055 13.4577 16.5555 13.8743 15.8333C14.291 15.111 14.7493 14.3888 15.2493 13.6666L12.916 13.2083L9.41602 16.7083ZM15.3327 20.1666L20.0827 24.8749C21.2493 24.4305 22.4993 23.7499 23.8327 22.8333C25.166 21.9166 26.416 20.8749 27.5827 19.7083C29.5271 17.7638 31.048 15.6041 32.1452 13.2291C33.2424 10.8541 33.7216 8.6666 33.5827 6.6666C31.5827 6.52771 29.3882 7.00688 26.9993 8.1041C24.6105 9.20132 22.4438 10.7222 20.4993 12.6666C19.3327 13.8333 18.291 15.0833 17.3743 16.4166C16.4577 17.7499 15.7771 18.9999 15.3327 20.1666ZM22.7493 17.4583C22.1105 16.8194 21.791 16.0347 21.791 15.1041C21.791 14.1735 22.1105 13.3888 22.7493 12.7499C23.3882 12.111 24.1799 11.7916 25.1243 11.7916C26.0688 11.7916 26.8605 12.111 27.4993 12.7499C28.1382 13.3888 28.4577 14.1735 28.4577 15.1041C28.4577 16.0347 28.1382 16.8194 27.4993 17.4583C26.8605 18.0972 26.0688 18.4166 25.1243 18.4166C24.1799 18.4166 23.3882 18.0972 22.7493 17.4583ZM23.541 30.8333L27.041 27.3333L26.5827 24.9999C25.8605 25.4999 25.1382 25.9513 24.416 26.3541C23.6938 26.7569 22.9438 27.1527 22.166 27.5416L23.541 30.8333ZM36.5827 3.62493C37.1105 6.98604 36.7841 10.2569 35.6035 13.4374C34.423 16.618 32.3882 19.6527 29.4993 22.5416L30.3327 26.6666C30.4438 27.2222 30.416 27.7638 30.2493 28.2916C30.0827 28.8194 29.8049 29.2777 29.416 29.6666L22.416 36.6666L18.916 28.4583L11.791 21.3333L3.58268 17.8333L10.541 10.8333C10.9299 10.4444 11.3952 10.1666 11.9368 9.99993C12.4785 9.83326 13.0271 9.80549 13.5827 9.9166L17.7077 10.7499C20.5966 7.86104 23.6243 5.81938 26.791 4.62493C29.9577 3.43049 33.2216 3.09715 36.5827 3.62493ZM6.54102 26.6249C7.51324 25.6527 8.70074 25.1597 10.1035 25.1458C11.5063 25.1319 12.6938 25.611 13.666 26.5833C14.6382 27.5555 15.1174 28.743 15.1035 30.1458C15.0896 31.5485 14.5966 32.736 13.6243 33.7083C12.9299 34.4027 11.7702 34.9999 10.1452 35.4999C8.52018 35.9999 6.27713 36.4444 3.41602 36.8333C3.8049 33.9722 4.24935 31.7291 4.74935 30.1041C5.24935 28.4791 5.84657 27.3194 6.54102 26.6249ZM8.91602 28.9583C8.63824 29.236 8.36046 29.743 8.08268 30.4791C7.8049 31.2152 7.61046 31.9583 7.49935 32.7083C8.24935 32.5972 8.9924 32.4097 9.72852 32.1458C10.4646 31.8819 10.9716 31.611 11.2493 31.3333C11.5827 30.9999 11.7632 30.5972 11.791 30.1249C11.8188 29.6527 11.666 29.2499 11.3327 28.9166C10.9993 28.5833 10.5966 28.4235 10.1243 28.4374C9.65213 28.4513 9.24935 28.6249 8.91602 28.9583Z" fill="black"/>
</svg>
