<svg width="24" height="24" viewBox="0 0 24 24" fill="none" xmlns="http://www.w3.org/2000/svg">
<path d="M3 8.25V18C3 18.5967 3.23705 19.169 3.65901 19.591C4.08097 20.0129 4.65326 20.25 5.25 20.25H18.75C19.3467 20.25 19.919 20.0129 20.341 19.591C20.7629 19.169 21 18.5967 21 18V8.25M3 8.25V6C3 5.40326 3.23705 4.83097 3.65901 4.40901C4.08097 3.98705 4.65326 3.75 5.25 3.75H18.75C19.3467 3.75 19.919 3.98705 20.341 4.40901C20.7629 4.83097 21 5.40326 21 6V8.25M3 8.25H21M5.25 6H5.258V6.008H5.25V6ZM7.5 6H7.508V6.008H7.5V6ZM9.75 6H9.758V6.008H9.75V6Z" stroke="white" stroke-width="1.5" stroke-linecap="round" stroke-linejoin="round"/>
</svg>
